# xmcd
#
# Track frame offsets: 
#        150
#        21073
#        39133
#        59255
#        76416
#        93215
#        109854
#        123567
#        140227
#        154741
#        171429
#        189203
#        213874
#        231683
#
# Disc length: 3359 seconds
#
# Revision: 0
# Processed by: cddbd v1.5.2PL0 Copyright (c) Steve Scherf et al.
# Submitted via: ExactAudioCopy v1.3
#
DISCID=bb0d1d0e
DTITLE=Zed Mitchell - Summer in L.A.
DYEAR=2017
DGENRE=Blues Rock
TTITLE0=Don't Lie To Me
TTITLE1=Cadillac
TTITLE2=Her Love
TTITLE3=It's Killing Me
TTITLE4=All Alone
TTITLE5=Summer In L.A
TTITLE6=Billion Kisses
TTITLE7=Good Night, Baby
TTITLE8=Game Is On
TTITLE9=Friends Are Like Diamonds
TTITLE10=The Lady Lives The Blues
TTITLE11=Silence
TTITLE12=On Tthe Road Of Life
TTITLE13=Somebody Told Me
EXTD=
EXTT0=
EXTT1=
EXTT2=
EXTT3=
EXTT4=
EXTT5=
EXTT6=
EXTT7=
EXTT8=
EXTT9=
EXTT10=
EXTT11=
EXTT12=
EXTT13=
PLAYORDER=
